REM DIRINDEX 1\2,1\3,1\4,1\5
REM DIRNAME cjc005,folder01,folder02,folder03,folder04
TITLE ""
FILE "P1Q_t_0070-0079.mp3" MP3
  TRACK 01 AUDIO
    TITLE "3:cjc005_1110"
    INDEX 01 00:00:00
  TRACK 02 AUDIO
    TITLE "0:"
    INDEX 01 00:01:11
  TRACK 03 AUDIO
    TITLE "4:cjc005_1111"
    INDEX 01 00:01:34
  TRACK 04 AUDIO
    TITLE "0:"
    INDEX 01 00:02:65
  TRACK 05 AUDIO
    TITLE "5:cjc005_1112"
    INDEX 01 00:03:12
  TRACK 06 AUDIO
    TITLE "0:"
    INDEX 01 00:07:35
  TRACK 07 AUDIO
    TITLE "3:cjc005_1113"
    INDEX 01 00:08:09
  TRACK 08 AUDIO
    TITLE "0:"
    INDEX 01 00:09:32
  TRACK 09 AUDIO
    TITLE "4:cjc005_1114"
    INDEX 01 00:09:57
  TRACK 10 AUDIO
    TITLE "0:"
    INDEX 01 00:11:17
  TRACK 11 AUDIO
    TITLE "5:cjc005_1115"
    INDEX 01 00:11:42
  TRACK 12 AUDIO
    TITLE "0:"
    INDEX 01 00:15:23
  TRACK 13 AUDIO
    TITLE "3:cjc005_1116"
    INDEX 01 00:16:00
  TRACK 14 AUDIO
    TITLE "0:"
    INDEX 01 00:17:14
  TRACK 15 AUDIO
    TITLE "4:cjc005_1117"
    INDEX 01 00:17:39
  TRACK 16 AUDIO
    TITLE "0:"
    INDEX 01 00:19:38
  TRACK 17 AUDIO
    TITLE "5:cjc005_1118"
    INDEX 01 00:19:62
  TRACK 18 AUDIO
    TITLE "0:"
    INDEX 01 00:23:32
  TRACK 19 AUDIO
    TITLE "3:cjc005_1119"
    INDEX 01 00:24:08
  TRACK 20 AUDIO
    TITLE "0:"
    INDEX 01 00:25:11
  TRACK 21 AUDIO
    TITLE "4:cjc005_1120"
    INDEX 01 00:25:46
  TRACK 22 AUDIO
    TITLE "0:"
    INDEX 01 00:26:48
  TRACK 23 AUDIO
    TITLE "5:cjc005_1121"
    INDEX 01 00:26:71
  TRACK 24 AUDIO
    TITLE "0:"
    INDEX 01 00:31:02
  TRACK 25 AUDIO
    TITLE "3:cjc005_1122"
    INDEX 01 00:31:53
  TRACK 26 AUDIO
    TITLE "0:"
    INDEX 01 00:32:74
  TRACK 27 AUDIO
    TITLE "4:cjc005_1123"
    INDEX 01 00:33:24
  TRACK 28 AUDIO
    TITLE "0:"
    INDEX 01 00:35:02
  TRACK 29 AUDIO
    TITLE "5:cjc005_1124"
    INDEX 01 00:35:31
  TRACK 30 AUDIO
    TITLE "0:"
    INDEX 01 00:39:29
  TRACK 31 AUDIO
    TITLE "3:cjc005_1125"
    INDEX 01 00:40:05
  TRACK 32 AUDIO
    TITLE "0:"
    INDEX 01 00:41:14
  TRACK 33 AUDIO
    TITLE "4:cjc005_1126"
    INDEX 01 00:41:36
  TRACK 34 AUDIO
    TITLE "0:"
    INDEX 01 00:42:53
  TRACK 35 AUDIO
    TITLE "5:cjc005_1127"
    INDEX 01 00:42:74
  TRACK 36 AUDIO
    TITLE "0:"
    INDEX 01 00:47:05
  TRACK 37 AUDIO
    TITLE "3:cjc005_1128"
    INDEX 01 00:47:52
  TRACK 38 AUDIO
    TITLE "0:"
    INDEX 01 00:49:02
  TRACK 39 AUDIO
    TITLE "4:cjc005_1129"
    INDEX 01 00:49:29
  TRACK 40 AUDIO
    TITLE "0:"
    INDEX 01 00:50:42
  TRACK 41 AUDIO
    TITLE "5:cjc005_1130"
    INDEX 01 00:50:64
  TRACK 42 AUDIO
    TITLE "0:"
    INDEX 01 00:54:21
  TRACK 43 AUDIO
    TITLE "3:cjc005_1131"
    INDEX 01 00:55:04
  TRACK 44 AUDIO
    TITLE "0:"
    INDEX 01 00:56:25
  TRACK 45 AUDIO
    TITLE "4:cjc005_1132"
    INDEX 01 00:56:59
  TRACK 46 AUDIO
    TITLE "0:"
    INDEX 01 00:58:17
  TRACK 47 AUDIO
    TITLE "5:cjc005_1133"
    INDEX 01 00:58:40
  TRACK 48 AUDIO
    TITLE "0:"
    INDEX 01 01:01:56
  TRACK 49 AUDIO
    TITLE "3:cjc005_1134"
    INDEX 01 01:02:32
  TRACK 50 AUDIO
    TITLE "0:"
    INDEX 01 01:03:47
  TRACK 51 AUDIO
    TITLE "4:cjc005_1135"
    INDEX 01 01:03:73
  TRACK 52 AUDIO
    TITLE "0:"
    INDEX 01 01:05:22
  TRACK 53 AUDIO
    TITLE "5:cjc005_1136"
    INDEX 01 01:05:44
  TRACK 54 AUDIO
    TITLE "0:"
    INDEX 01 01:09:63
  TRACK 55 AUDIO
    TITLE "3:cjc005_1137"
    INDEX 01 01:10:37
  TRACK 56 AUDIO
    TITLE "0:"
    INDEX 01 01:11:47
  TRACK 57 AUDIO
    TITLE "4:cjc005_1138"
    INDEX 01 01:12:01
  TRACK 58 AUDIO
    TITLE "0:"
    INDEX 01 01:13:06
  TRACK 59 AUDIO
    TITLE "5:cjc005_1139"
    INDEX 01 01:13:28
  TRACK 60 AUDIO
    TITLE "0:"
    INDEX 01 01:16:30
